<svg xmlns="http://www.w3.org/2000/svg" width="624" height="572" viewBox="0 0 624 572" version="1.1">
	<path d="M 173.317 88.228 C 171.566 88.790, 168.881 90.558, 167.351 92.156 C 164.600 95.026, 164.558 95.268, 163.724 112.780 C 163.259 122.526, 163.178 135.600, 163.543 141.834 C 164.168 152.496, 164.381 153.365, 167.142 156.509 C 173.701 163.979, 186.503 162.851, 192.137 154.305 C 193.822 151.750, 193.987 149.078, 193.993 124.285 L 194 97.070 190.766 93.386 C 185.629 87.536, 180.336 85.971, 173.317 88.228 M 273.352 88.092 C 269.865 89.103, 264.340 94.796, 263.466 98.280 C 263.156 99.515, 263.037 112.307, 263.201 126.708 L 263.500 152.892 266.896 156.395 C 274.135 163.860, 286.836 162.899, 291.935 154.500 C 294.861 149.681, 295.204 144.974, 294.438 120.181 L 293.713 96.743 290.622 93.222 C 285.689 87.604, 280.430 86.042, 273.352 88.092 M 211.569 119.101 C 211.303 119.870, 210.948 127.925, 210.780 137 C 210.486 152.798, 210.355 153.725, 207.702 158.784 C 204.363 165.153, 198.610 171.102, 192.791 174.206 C 189.185 176.129, 186.983 176.494, 179 176.494 C 171.015 176.494, 168.815 176.129, 165.205 174.204 C 159.269 171.038, 153.385 165.513, 150.247 160.158 C 147.830 156.034, 147.542 154.363, 146.876 140.575 C 146.475 132.284, 146.114 124.037, 146.074 122.250 L 146 119 134.458 119 C 121.379 119, 110.996 120.817, 100.216 124.992 C 78.982 133.215, 60.823 150.116, 51.469 170.360 C 47.891 178.104, 42.339 198.673, 43.511 199.844 C 43.871 200.205, 133.207 200.651, 242.034 200.836 L 439.902 201.173 439.353 197.336 C 434.101 160.626, 412.465 134.473, 377.287 122.312 C 369.670 119.679, 368.871 119.612, 340.750 119.230 C 313.428 118.859, 311.997 118.930, 311.949 120.670 C 311.921 121.676, 311.539 129.739, 311.100 138.587 C 310.356 153.593, 310.111 155.025, 307.463 159.891 C 301.783 170.327, 292.749 176.086, 281 176.764 C 275.011 177.109, 272.351 176.762, 267.798 175.044 C 261.160 172.539, 252.764 165.417, 249.952 159.907 C 247.361 154.828, 246.044 145.060, 246.020 130.750 L 246 119 238.750 118.995 C 234.762 118.992, 227.124 118.700, 221.776 118.346 C 213.917 117.825, 211.959 117.970, 211.569 119.101 M 428 119.528 C 428 119.941, 431.268 123.703, 435.263 127.889 C 447.203 140.401, 455.432 154.319, 461.367 172.045 C 463.777 179.240, 463.997 179.529, 467.682 180.320 C 481.740 183.339, 489.026 186.966, 495.559 194.197 C 500.556 199.728, 504.853 209.301, 505.616 216.602 C 506.968 229.536, 499.167 245.024, 486.754 254.053 L 483.007 256.777 489.642 262.984 C 493.291 266.397, 499.501 271.575, 503.442 274.489 C 521.770 288.044, 527.975 296.206, 527.991 306.782 C 528.003 315.202, 526.170 319.092, 518.878 326.117 L 512.740 332.031 517.718 337.296 C 530.236 350.532, 534.492 364.225, 530.391 378.068 C 528.111 385.764, 524.666 391.191, 518.458 396.864 C 511.043 403.641, 505.837 405.930, 495.323 407.036 C 490.470 407.547, 464 408.031, 436.500 408.112 C 409 408.194, 374.637 408.539, 360.137 408.880 L 333.775 409.500 331.356 417.882 C 326.614 434.322, 318.222 448.996, 305.900 462.393 L 299.560 469.286 398.530 468.726 C 507.371 468.109, 506.828 468.139, 525 461.798 C 540.863 456.263, 551.757 449.118, 564.584 435.836 C 573.801 426.292, 576.991 422.012, 581.232 413.500 C 595.925 384.009, 596.208 351.577, 582.034 321.332 C 576.563 309.656, 573.145 305.066, 559.621 291.231 L 547.628 278.963 549.847 275.231 C 554.919 266.703, 559.935 255.981, 562.588 248 C 565.296 239.853, 565.414 238.691, 565.439 220 L 565.464 200.500 561.595 189.203 C 555.870 172.487, 549.656 162.656, 536.500 149.500 C 524.628 137.628, 516.741 132.401, 501.581 126.361 C 487.612 120.795, 481.082 119.839, 453.250 119.283 C 439.363 119.006, 428 119.116, 428 119.528 M 57.500 229.490 C 52.030 231.408, 44.589 239.574, 43.213 245.168 C 41.351 252.741, 40.900 279.183, 41.853 325 C 42.766 368.942, 42.811 369.613, 45.437 378.500 C 46.900 383.450, 50.733 392.900, 53.954 399.500 C 70.133 432.649, 97.654 455.447, 132 464.157 C 147.219 468.016, 171.603 469.432, 210 468.687 C 234.469 468.213, 239.632 467.840, 246.500 466.051 C 266.006 460.972, 283.221 449.271, 293.659 434 C 299.623 425.273, 306.009 410.677, 304.517 409.183 C 304.142 408.807, 269.110 408.263, 226.668 407.973 L 149.500 407.445 142.865 404.811 C 126.090 398.150, 114.017 387.073, 106.259 371.223 L 101.500 361.500 100.828 306 C 100.459 275.475, 99.903 248.573, 99.593 246.219 C 98.899 240.945, 95.408 235.642, 90.383 232.227 C 87.379 230.186, 84.782 229.484, 78.039 228.892 C 65.693 227.808, 61.991 227.916, 57.500 229.490 M 376.196 232.298 L 373 235.595 373 253.481 L 373 271.367 389.500 287.970 C 400.178 298.715, 406 305.305, 406 306.645 C 406 308.021, 400.456 314.004, 389.500 324.455 L 373 340.193 373 358.401 L 373 376.608 376.298 379.804 L 379.595 383 395.137 383 L 410.679 383 424.590 369.826 C 432.240 362.580, 449.413 345.955, 462.750 332.882 C 483.046 312.989, 487 308.654, 487 306.298 C 487 303.395, 473.811 289.789, 427.774 245.200 L 411.047 229 395.220 229 L 379.392 229 376.196 232.298 M 285.791 253.931 C 282.652 254.254, 279.502 255.098, 278.791 255.808 C 276.993 257.605, 277.004 275.400, 278.805 277.198 C 280.172 278.562, 299.204 279.129, 300.489 277.844 C 301.523 276.810, 302.338 262.614, 301.591 258.634 C 300.902 254.960, 300.395 254.639, 293.750 253.673 C 292.512 253.493, 288.931 253.609, 285.791 253.931 M 134.814 254.631 C 133.617 254.980, 132.928 256.725, 132.438 260.654 C 131.799 265.763, 132.485 276.818, 133.503 277.837 C 133.745 278.078, 138.118 278.480, 143.221 278.729 C 156.131 279.361, 156.510 279.013, 156.467 266.597 C 156.444 260.258, 156.006 256.606, 155.168 255.767 C 153.899 254.497, 138.271 253.625, 134.814 254.631 M 182.054 255.435 C 180.714 257.050, 180.064 276.398, 181.308 277.642 C 181.731 278.065, 186.223 278.581, 191.289 278.788 C 204.094 279.312, 204.500 278.941, 204.500 266.733 C 204.500 254.196, 204.315 254, 192.500 254 C 185.678 254, 182.932 254.377, 182.054 255.435 M 232.814 254.710 C 230.379 255.082, 230.065 255.635, 229.438 260.653 C 228.767 266.021, 229.502 276.835, 230.613 277.946 C 231.827 279.161, 250.893 278.497, 252.195 277.195 C 253.088 276.302, 253.495 272.881, 253.485 266.353 C 253.466 254.577, 252.887 253.931, 242.559 254.150 C 238.676 254.232, 234.291 254.484, 232.814 254.710 M 136.055 297.823 C 134.372 298.333, 133.330 299.644, 132.710 302.032 C 131.484 306.756, 132.227 319.627, 133.818 321.218 C 134.669 322.069, 138.097 322.500, 144.014 322.500 C 155.939 322.500, 156.500 321.939, 156.500 310 C 156.500 298.607, 155.837 297.824, 145.818 297.395 C 141.793 297.222, 137.400 297.415, 136.055 297.823 M 184.235 297.975 C 182.990 298.509, 181.485 300.196, 180.892 301.723 C 179.530 305.227, 180.264 319.664, 181.887 321.287 C 182.656 322.056, 186.360 322.500, 192.014 322.500 C 203.675 322.500, 204.378 321.853, 204.843 310.691 C 205.317 299.320, 204.118 297.856, 193.928 297.363 C 189.843 297.166, 185.481 297.441, 184.235 297.975 M 234.739 297.940 C 232.670 298.352, 230.645 299.022, 230.239 299.430 C 228.893 300.780, 229.383 319.785, 230.800 321.201 C 232.474 322.874, 250.388 323.012, 252.034 321.366 C 255.018 318.382, 254.322 299.495, 251.196 298.632 C 247.522 297.618, 238.304 297.230, 234.739 297.940 M 282.323 297.696 C 278.391 298.461, 277.500 300.757, 277.500 310.118 C 277.500 321.922, 278.083 322.500, 289.989 322.500 C 295.497 322.500, 299.351 322.050, 300.079 321.322 C 301.512 319.888, 302.510 307.532, 301.590 302.625 C 301.019 299.587, 300.386 298.924, 297.212 298.042 C 293.558 297.027, 286.590 296.865, 282.323 297.696 M 135.314 341.634 C 133.505 342.038, 133.010 343.069, 132.442 347.615 C 131.502 355.140, 132.373 362.802, 134.399 364.825 C 136.548 366.971, 153.131 367.271, 155.201 365.200 C 156.895 363.504, 157.018 344.618, 155.345 342.945 C 154.152 341.752, 139.179 340.772, 135.314 341.634 M 183.305 341.944 C 181.867 342.567, 180.875 344.150, 180.427 346.536 C 179.493 351.516, 180.476 363.876, 181.922 365.322 C 183.575 366.975, 201.489 366.911, 203.154 365.246 C 203.914 364.486, 204.557 360.348, 204.787 354.746 C 205.292 342.393, 204.911 341.924, 193.941 341.398 C 189.299 341.176, 184.512 341.422, 183.305 341.944 M 232.314 341.634 C 230.505 342.038, 230.010 343.069, 229.442 347.615 C 228.502 355.140, 229.373 362.802, 231.399 364.825 C 233.548 366.971, 250.131 367.271, 252.201 365.200 C 253.895 363.504, 254.018 344.618, 252.345 342.945 C 251.152 341.752, 236.179 340.772, 232.314 341.634 M 281.055 341.824 C 277.857 342.792, 276.645 347.436, 277.267 356.337 C 277.929 365.803, 278.813 366.506, 290.015 366.476 C 295.766 366.461, 299.390 366.010, 300.189 365.211 C 301.722 363.678, 302.510 345.117, 301.129 343.075 C 300.043 341.469, 285.270 340.549, 281.055 341.824" stroke="none" fill="#ffffff" fill-rule="evenodd"/>
</svg>